<?xml version="1.0" encoding="utf-8"?>
<!-- Generator: Adobe Illustrator 17.0.0, SVG Export Plug-In . SVG Version: 6.00 Build 0)  -->
<!DOCTYPE svg PUBLIC "-//W3C//DTD SVG 1.1//EN" "http://www.w3.org/Graphics/SVG/1.1/DTD/svg11.dtd">
<svg version="1.1" id="Capa_1" xmlns="http://www.w3.org/2000/svg" xmlns:xlink="http://www.w3.org/1999/xlink" x="0px" y="0px"
	 width="792px" height="612px" viewBox="0 0 792 612" enable-background="new 0 0 792 612" xml:space="preserve">
<g>
	<g>
		<path fill="#534A4A" d="M576.492,0H215.508C146.303,0,90,56.303,90,125.508v360.984C90,555.697,146.303,612,215.508,612h360.984
			C645.697,612,702,555.697,702,486.492V125.508C702,56.303,645.697,0,576.492,0z M666.141,486.492
			c0,49.432-40.216,89.648-89.648,89.648H215.508c-49.432,0-89.648-40.216-89.648-89.648V125.508
			c0-49.432,40.216-89.648,89.648-89.648h360.984c49.432,0,89.648,40.216,89.648,89.648V486.492z"/>
	</g>
</g>
<g>
	<g>
		<path fill="#534A4A" d="M455.342,147.658c-2.067-7.71-7.01-14.155-13.923-18.145c-14.267-8.238-32.579-3.334-40.82,10.938
			l-4.6,7.966l-4.6-7.967c-8.239-14.268-26.55-19.175-40.82-10.938h-0.001c-14.27,8.239-19.175,26.55-10.937,40.821l21.852,37.848
			l-80.629,139.654h-58.783c-16.477,0-29.883,13.405-29.883,29.883s13.405,29.883,29.883,29.883h226.942l-34.506-59.766h-64.641
			l102.48-177.502C456.348,163.422,457.409,155.368,455.342,147.658z"/>
	</g>
</g>
<g>
	<g>
		<path fill="#534A4A" d="M569.918,347.836h-58.783l-66.826-115.747l-34.505,59.766l103.758,179.713
			c3.991,6.914,10.434,11.859,18.146,13.925c2.575,0.69,5.186,1.032,7.783,1.032c5.178,0,10.289-1.358,14.895-4.017
			c14.27-8.239,19.175-26.551,10.936-40.82l-19.681-34.086h24.278c16.477,0,29.883-13.405,29.883-29.883
			S586.395,347.836,569.918,347.836z"/>
	</g>
</g>
<g>
	<g>
		<path fill="#534A4A" d="M232.558,431.508l-5.877,10.179c-8.238,14.27-3.331,32.582,10.938,40.82
			c4.694,2.71,9.824,3.998,14.891,3.997c10.335,0,20.4-5.36,25.93-14.935l23.129-40.061H232.558z"/>
	</g>
</g>
</svg>
