<?xml version="1.0" encoding="utf-8"?>
<!-- Generator: Adobe Illustrator 17.0.0, SVG Export Plug-In . SVG Version: 6.00 Build 0)  -->
<!DOCTYPE svg PUBLIC "-//W3C//DTD SVG 1.1//EN" "http://www.w3.org/Graphics/SVG/1.1/DTD/svg11.dtd">
<svg version="1.1" id="Capa_1" xmlns="http://www.w3.org/2000/svg" xmlns:xlink="http://www.w3.org/1999/xlink" x="0px" y="0px"
	 width="512px" height="512px" viewBox="0 0 512 512" enable-background="new 0 0 512 512" xml:space="preserve">
<path fill="#534A4A" d="M460.652,217.583c-0.08-0.04-0.16-0.09-0.24-0.14L97.974,6.545C83.9-1.933,66.963-2.193,52.629,5.875
	c-14.364,8.088-22.953,22.762-22.953,39.259V466.87c0,16.496,8.588,31.171,22.953,39.259c14.004,7.878,30.941,7.998,45.335-0.671
	c0,0,362.608-210.808,362.688-210.858c13.563-8.238,21.671-22.632,21.671-38.508S474.216,225.821,460.652,217.583z M338.512,181.258
	l-53.243,53.483L85.662,34.133L338.512,181.258z M59.706,461.304V50.619l204.372,205.403L59.706,461.304z M85.491,477.971
	l199.767-200.658l53.273,53.543L85.491,477.971z M445.177,268.864l-79.809,46.396l-58.918-59.229l58.898-59.158l79.819,46.446
	c6.426,3.964,7.127,10.25,7.127,12.773C452.294,258.614,451.593,264.9,445.177,268.864z"/>
</svg>
