<svg id="Layer_1" enable-background="new 0 0 512 512" height="512" viewBox="0 0 512 512" width="512" xmlns="http://www.w3.org/2000/svg"><path d="m441 286.628c0 137.243-82.827 217.872-185 217.872s-185-80.629-185-217.872 82.827-279.128 185-279.128 185 141.886 185 279.128z" fill="#e4e9f5"/><path d="m256 7.5c-5.051 0-10.052.36-15 1.036 95.157 12.994 170 147.634 170 278.093s-74.843 209.754-170 217.276c4.948.391 9.949.596 15 .596 102.173 0 185-80.629 185-217.872s-82.827-279.129-185-279.129z" fill="#d7dce8"/><g fill="#8ab4ba"><path d="m216.425 221.547c-6.944 35.72-32.198 60.923-56.407 56.293s-38.205-37.339-31.261-73.059 32.198-60.923 56.407-56.293 38.205 37.339 31.261 73.059z"/><path d="m102.006 414.841c-16.671-29.034-27.422-64.61-30.255-105.974 17.982-.986 37.814 15.927 46.853 41.364 10.201 28.761 2.769 57.585-16.598 64.61z"/><path d="m329.917 91.947c10.259 22.205 5.583 46.104-10.444 53.379s-37.335-4.828-47.594-27.034-5.583-46.104 10.444-53.379 37.335 4.828 47.594 27.034z"/><path d="m389.691 371.599c-7.122 36.636-35.758 61.964-63.96 56.571s-45.291-39.465-38.169-76.102c7.122-36.636 35.758-61.964 63.96-56.571s45.291 39.465 38.169 76.102z"/></g><path d="m140.763 452.262c-10.731-10.1-20.178-21.636-28.272-34.498 17.569-12.326 23.48-41.004 13.179-70.044-8.962-25.224-27.504-43.05-46.82-45.971-.233-4.977-.35-10.018-.35-15.12 0-78.651 28.011-160.855 73.102-214.533 2.664-3.172 2.253-7.903-.918-10.567-3.172-2.665-7.902-2.253-10.567.918-47.259 56.259-76.617 142.159-76.617 224.181 0 37.554 6.053 72.082 17.991 102.625 11.414 29.202 27.896 54.076 48.991 73.931 3.023 2.844 7.768 2.689 10.602-.321 2.839-3.015 2.695-7.761-.321-10.601zm-60.78-134.895c12.553 3.788 25.222 17.556 31.552 35.371 7.494 21.126 4.309 42.913-6.596 51.894-3.485-6.648-6.647-13.598-9.477-20.839-7.939-20.31-13.117-42.558-15.479-66.426z"/><path d="m438.621 202.107c-.939-4.035-4.973-6.546-9.004-5.605-4.035.938-6.544 4.97-5.605 9.004 6.296 27.057 9.488 54.35 9.488 81.122 0 63.549-18.074 117.283-52.268 155.393-31.81 35.454-76.285 54.979-125.232 54.979-33.057 0-64.571-8.971-91.136-25.942-3.491-2.231-8.128-1.208-10.358 2.283-2.23 3.49-1.208 8.128 2.283 10.358 28.981 18.514 63.287 28.301 99.211 28.301 53.264 0 101.704-21.294 136.397-59.961 36.703-40.906 56.103-98.104 56.103-165.411 0-27.915-3.324-56.352-9.879-84.521z"/><path d="m173.095 49.942c25.897-22.859 54.565-34.942 82.905-34.942 32.765 0 65.377 15.863 94.311 45.875 27.419 28.44 50.613 69.074 65.309 114.416 1.028 3.172 3.969 5.19 7.133 5.189.766 0 1.546-.118 2.314-.367 3.94-1.277 6.099-5.507 4.822-9.447-15.607-48.153-39.391-89.718-68.779-120.202-31.829-33.014-68.175-50.464-105.11-50.464-32.052 0-64.152 13.381-92.832 38.697-3.105 2.741-3.4 7.48-.66 10.586 2.742 3.105 7.481 3.4 10.587.659z"/><path d="m145.188 156.195c-11.702 11.679-20.152 28.426-23.793 47.155-4.549 23.401-.805 46.918 10.016 62.909 16.116 23.814 45.409 27.002 68.583 3.874 11.703-11.679 20.152-28.425 23.793-47.155 4.549-23.401.805-46.918-10.016-62.909-15.805-23.355-45-27.411-68.583-3.874zm63.874 63.92c-8.247 42.425-45.023 67.594-65.229 37.737-8.635-12.761-11.519-32.065-7.714-51.64 8.157-41.967 44.782-67.954 65.229-37.737 8.636 12.762 11.52 32.067 7.714 51.64z"/><path d="m322.573 152.154c21.805-9.897 25.043-39.779 14.152-63.353-10.59-22.92-35.265-40.813-57.502-30.718-21.805 9.899-25.043 39.779-14.152 63.354 10.589 22.922 35.266 40.813 57.502 30.717zm-43.885-37.008c-7.134-15.441-6.896-37.217 6.735-43.404 13.845-6.288 30.664 8.152 37.685 23.35 7.134 15.441 6.895 37.216-6.735 43.403-12.052 5.472-29.311-5.221-37.685-23.349z"/><path d="m397.054 373.03c4.413-22.702.448-45.321-10.879-62.06-30.703-45.372-94.025-21.807-105.974 39.667-4.413 22.701-.448 45.321 10.878 62.059 30.563 45.165 93.975 22.059 105.975-39.666zm-102.129-19.531c9.389-48.304 55.706-68.289 78.827-34.122 9.109 13.461 12.235 31.973 8.577 50.791-9.39 48.304-55.707 68.289-78.827 34.122-9.108-13.462-12.235-31.974-8.577-50.791z"/></svg>