<svg id="Capa_1" enable-background="new 0 0 512 512" height="512" viewBox="0 0 512 512" width="512" xmlns="http://www.w3.org/2000/svg"><g><g><path clip-rule="evenodd" d="m172.281 161.989h-84.795c-32.631 0-59.308 26.702-59.308 59.301v32.91c-7.995 4.479-13.92 12.217-16.33 25.455-3.062 16.724-.851 38.126 6.01 56.069 14.402 37.673 39.151 36.539 40.881 88.555l69.259 11.991 77.254-11.991v-16.186c0-49.89 38.755-40.139 38.755-99.525v-74.835c0-39.458-32.291-71.744-71.726-71.744z" fill="#fb2a39" fill-rule="evenodd"/></g><g><path clip-rule="evenodd" d="m339.717 7.5c-39.435 0-71.726 32.258-71.726 71.717v74.835c0 59.386 38.755 49.635 38.755 99.525v16.186l76.659 11.991 69.855-11.991c1.729-52.016 26.479-50.854 40.881-88.555 6.861-17.915 9.072-39.345 6.01-56.069-2.495-13.635-8.193-18.907-16.33-20.835v-37.531c0-32.599-26.677-59.273-59.308-59.273h-84.796z" fill="#fb2a39" fill-rule="evenodd"/></g><g><path clip-rule="evenodd" d="m205.252 424.279h-146.513-2.58c-5.868 0-10.66 4.791-10.66 10.658v39.43h173.106v-39.43c0-5.868-4.791-10.658-10.66-10.658z" fill="#fec165" fill-rule="evenodd"/></g><g><path clip-rule="evenodd" d="m218.605 464.39h-173.106v29.452c0 5.839 4.791 10.658 10.66 10.658h151.786c5.868 0 10.66-4.819 10.66-10.658z" fill="#fec165" fill-rule="evenodd"/></g><g><path clip-rule="evenodd" d="m453.259 269.762h-146.514-2.693c-5.868 0-10.66 4.791-10.66 10.658v39.458h173.106v-39.458c0-5.868-4.791-10.658-10.66-10.658z" fill="#fec165" fill-rule="evenodd"/></g><g><path clip-rule="evenodd" d="m212.113 233.734v74.835c0 59.386-38.726 49.635-38.726 99.525v16.186h31.865v-16.186c0-49.89 38.755-40.139 38.755-99.525v-74.835c0-39.458-32.291-71.745-71.726-71.745h-31.894c39.463 0 71.726 32.286 71.726 71.745z" fill="#e41e2b" fill-rule="evenodd"/></g><g><path clip-rule="evenodd" d="m471.573 135.144c3.033 16.724.851 28.148-6.01 46.063-14.402 37.701-39.151 36.539-40.909 88.555h28.605c1.729-52.016 26.479-50.854 40.881-88.555 6.861-17.915 9.072-39.345 6.01-56.069-2.495-13.635-8.193-18.907-16.33-20.835v-37.53c0-32.599-26.677-59.273-59.308-59.273h-28.577c32.603 0 59.308 26.674 59.308 59.273v46.914c0 .822-.057.595.794.822 7.711 2.069 13.126 7.454 15.536 20.635z" fill="#e41e2b" fill-rule="evenodd"/></g><g><path clip-rule="evenodd" d="m466.498 309.873h-173.105v29.452c0 5.868 4.791 10.658 10.66 10.658h151.786c5.868 0 10.66-4.791 10.66-10.658v-29.452z" fill="#fec165" fill-rule="evenodd"/></g><g><path clip-rule="evenodd" d="m205.252 424.279h-29.172c3.033 0 5.755 1.276 7.711 3.317 1.814 1.928 2.948 4.507 2.948 7.342v29.452h31.866v-29.452c0-5.868-4.791-10.658-10.66-10.658h-2.693z" fill="#fea610" fill-rule="evenodd"/></g><g><path clip-rule="evenodd" d="m218.605 464.39h-31.865v9.978 19.474c0 5.839-4.82 10.658-10.66 10.658h31.865c5.868 0 10.66-4.819 10.66-10.658v-19.474z" fill="#fea610" fill-rule="evenodd"/></g><g><path clip-rule="evenodd" d="m453.259 269.762h-25.997c2.948 0 5.613 1.219 7.569 3.175 1.899 1.928 3.09 4.564 3.09 7.483v29.452h28.577v-29.452c0-5.868-4.791-10.658-10.66-10.658z" fill="#fea610" fill-rule="evenodd"/></g><g><path clip-rule="evenodd" d="m466.498 309.873h-28.577v10.006 19.446c0 5.868-4.791 10.658-10.66 10.658h28.577c5.868 0 10.66-4.791 10.66-10.658v-19.446z" fill="#fea610" fill-rule="evenodd"/></g><g><path clip-rule="evenodd" d="m132.052 339.551c-10.064 0-18.286 8.22-18.286 18.284v66.444h36.6v-66.444c0-10.063-8.25-18.284-18.314-18.284z" fill="#f8f2f0" fill-rule="evenodd"/></g><g><path d="m172.281 154.489h-84.795c-36.838 0-66.809 29.967-66.809 66.801v28.798c-8.544 6.151-13.879 15.472-16.207 28.217-3.315 18.105-.869 41.133 6.382 60.098 6.009 15.72 13.787 25.281 20.648 33.717 9.609 11.813 17.363 21.364 19.343 45.456-7.428 2.278-12.845 9.197-12.845 17.361v58.904c0 10.013 8.146 18.158 18.16 18.158h151.787c10.013 0 18.16-8.146 18.16-18.158v-58.904c0-8.347-5.669-15.377-13.353-17.492v-9.352c0-21.06 7.184-29.341 16.278-39.827 10.535-12.146 22.476-25.913 22.476-59.698 0-4.142-3.358-7.5-7.5-7.5s-7.5 3.358-7.5 7.5c0 28.186-9.136 38.718-18.808 49.869-9.35 10.779-19.947 22.997-19.947 49.655v8.686h-39.886v-58.944c0-14.217-11.581-25.784-25.814-25.784-14.218 0-25.786 11.566-25.786 25.784v58.944h-40.447c-2.373-29.138-12.681-41.832-22.68-54.125-6.452-7.931-13.123-16.133-18.274-29.609-6.326-16.544-8.486-36.484-5.638-52.043 1.86-10.184 5.897-16.324 12.123-20.004.337-.158.662-.34.97-.544 8.762-4.666 21.561-4.94 38.418-4.802 2.282.019 4.571.038 6.855.038 11.471 0 21.162 10.066 21.162 21.98 0 12.12-9.862 21.98-21.984 21.98h-28.719c-4.142 0-7.5 3.358-7.5 7.5s3.358 7.5 7.5 7.5h28.718c12.476 0 23.52-6.215 30.222-15.704h58.57c26.756 0 48.523-21.765 48.523-48.518 0-4.142-3.358-7.5-7.5-7.5s-7.5 3.358-7.5 7.5c0 18.481-15.039 33.518-33.523 33.518h-52.351c.351-2.042.544-4.136.544-6.276 0-20.391-16.222-36.98-36.162-36.98-2.243 0-4.491-.019-6.732-.037-11.995-.101-24.35-.201-35.182 2.623v-21.985c0-28.563 23.241-51.801 51.809-51.801h84.795c35.414 0 64.226 28.82 64.226 64.245v40.195c0 4.142 3.358 7.5 7.5 7.5s7.5-3.358 7.5-7.5v-40.195c-.001-43.696-35.542-79.245-79.227-79.245zm-51.015 203.346c0-5.946 4.838-10.784 10.786-10.784 5.963 0 10.814 4.837 10.814 10.784v58.944h-21.6zm-68.267 77.103c0-1.712 1.447-3.158 3.16-3.158h57.607 36.6 57.579c1.713 0 3.16 1.446 3.16 3.158v21.952h-158.106zm0 36.952h158.106v21.952c0 1.712-1.447 3.158-3.16 3.158h-151.786c-1.713 0-3.16-1.446-3.16-3.158z"/><path d="m507.528 123.792c-2.604-14.273-8.586-21.374-16.208-24.835v-32.185c0-36.818-29.97-66.772-66.809-66.772h-84.795c-43.685 0-79.226 35.537-79.226 79.217v37.417c0 4.142 3.358 7.5 7.5 7.5s7.5-3.358 7.5-7.5v-37.417c0-35.409 28.812-64.217 64.226-64.217h84.795c28.567 0 51.809 23.225 51.809 51.772v29.126c-3.904-.166-7.924-.039-11.914.086-3.037.096-6.177.194-9.483.195-27.183.234-43.411 17.185-43.411 45.342v35.575c0 4.142 3.358 7.5 7.5 7.5s7.5-3.358 7.5-7.5v-35.575c0-19.971 9.603-30.18 28.476-30.343 3.477 0 6.737-.103 9.889-.202 7.465-.235 12.861-.312 16.844.527.26.076.525.138.796.185 5.985 1.527 8.553 5.466 10.255 14.798 2.851 15.573.691 35.512-5.639 52.042-5.154 13.492-11.828 21.696-18.283 29.631-9.994 12.285-20.298 24.972-22.671 54.1h-131.934v-8.686c0-26.658-10.597-38.876-19.947-49.655-9.672-11.151-18.808-21.683-18.808-49.869 0-4.142-3.358-7.5-7.5-7.5s-7.5 3.358-7.5 7.5c0 33.785 11.941 47.552 22.476 59.698 9.095 10.485 16.278 18.767 16.278 39.827v9.352c-7.684 2.115-13.353 9.145-13.353 17.492v58.904c0 10.013 8.146 18.158 18.16 18.158h151.787c10.013 0 18.16-8.146 18.16-18.158v-58.902c0-8.164-5.417-15.083-12.845-17.361 1.979-24.083 9.729-33.626 19.333-45.432 6.865-8.439 14.646-18.005 20.657-33.738 7.257-18.946 9.702-41.976 6.385-60.097zm-48.53 215.533c0 1.712-1.447 3.158-3.16 3.158h-151.786c-1.713 0-3.16-1.446-3.16-3.158v-21.952h158.106zm0-36.952h-158.106v-21.953c0-1.712 1.447-3.158 3.16-3.158h151.787c1.713 0 3.16 1.446 3.16 3.158v21.953z"/></g></g></svg>