<?xml version="1.0" encoding="utf-8"?>
<!-- Generator: Adobe Illustrator 17.0.0, SVG Export Plug-In . SVG Version: 6.00 Build 0)  -->
<!DOCTYPE svg PUBLIC "-//W3C//DTD SVG 1.1//EN" "http://www.w3.org/Graphics/SVG/1.1/DTD/svg11.dtd">
<svg version="1.1" id="Capa_1" xmlns="http://www.w3.org/2000/svg" xmlns:xlink="http://www.w3.org/1999/xlink" x="0px" y="0px"
	 width="792px" height="612px" viewBox="0 0 792 612" enable-background="new 0 0 792 612" xml:space="preserve">
<g>
	<g>
		<path fill="#534A4A" d="M678.689,106.433h-261.77c-4.951,0-8.965,4.014-8.965,8.965s4.014,8.965,8.965,8.965H678.69
			c2.967,0,5.379,2.413,5.379,5.379v236.757c0,4.951,4.015,8.965,8.965,8.965c4.951,0,8.965-4.014,8.964-8.965V129.744
			C701.999,116.891,691.545,106.433,678.689,106.433z"/>
	</g>
</g>
<g>
	<g>
		<path fill="#534A4A" d="M693.035,399.374c-4.95,0-8.965,4.014-8.965,8.965v73.917c0,2.966-2.412,5.379-5.379,5.379H113.31
			c-2.964,0-5.379-2.413-5.379-5.379V129.744c0-2.966,2.415-5.379,5.379-5.379h261.77c4.952,0,8.965-4.014,8.965-8.965
			c0-4.951-4.013-8.965-8.965-8.965H113.31C100.458,106.433,90,116.891,90,129.744v352.513c0,12.853,10.458,23.31,23.31,23.31
			h565.38c12.856,0,23.31-10.458,23.31-23.31V408.34C702,403.388,697.987,399.374,693.035,399.374z"/>
	</g>
</g>
<g>
	<g>
		<path fill="#534A4A" d="M453.208,335.628c-33.331,0-60.446,27.116-60.446,60.445c0,33.332,27.116,60.448,60.446,60.448
			c33.332,0,60.448-27.117,60.448-60.448C513.656,362.743,486.54,335.628,453.208,335.628z M453.206,448.441
			c-26.77,0-49.271-20.41-52.059-46.816c8.517,0.104,16.979,0.344,25.203,0.71c2.799,12.637,13.949,21.663,27.043,21.663
			c11.287,0,21.418-6.862,25.654-17.224c8.584,1.107,16.805,2.382,24.485,3.799C497.115,432.964,476.687,448.441,453.206,448.441z
			 M453.391,381.767c-0.001,0-0.001,0-0.002,0c-6.344,0-11.563,3.684-13.646,9.5h-3.082c2.173-7.34,8.901-12.473,16.733-12.473
			s14.563,5.131,16.734,12.473h-3.08C464.967,385.452,459.745,381.768,453.391,381.767z M457.922,396.282
			c0,2.496-2.031,4.527-4.527,4.527c-2.495,0-4.524-2.031-4.524-4.527c0-2.496,2.03-4.527,4.524-4.527
			C455.891,391.755,457.922,393.786,457.922,396.282z M439.744,401.294c2.083,5.818,7.303,9.504,13.651,9.504
			c0.001,0,0.002,0,0.005,0c6.348-0.001,11.571-3.686,13.65-9.504h3.083c-2.172,7.34-8.903,12.474-16.737,12.474
			c-7.832,0-14.563-5.133-16.734-12.474H439.744z M480.972,399.029c0.092-0.922,0.139-1.84,0.139-2.748
			c0-15.281-12.435-27.713-27.716-27.713c-14.574,0-26.602,11.369-27.637,25.703c-8.275-0.381-16.614-0.629-24.839-0.739
			c1.335-27.636,24.425-49.828,52.29-49.828c28.875,0,52.369,23.491,52.369,52.369c0,2.215-0.146,4.463-0.436,6.709
			C497.529,401.391,489.415,400.131,480.972,399.029z"/>
	</g>
</g>
<g>
	<g>
		<path fill="#534A4A" d="M390.509,379.237c-0.002-0.002-0.005-0.006-0.007-0.008c-0.274-0.294-0.822-0.802-2.44-1.806
			c-0.283-0.176-0.611-0.27-0.944-0.27l-23.14-0.019l17.173-15.293c0.74-0.659,0.806-1.791,0.148-2.53l-2.563-2.88
			c-17.208-19.316-43.046-25.55-67.434-16.262c-24.082,9.17-39.042,30.708-39.042,56.206c0,33.279,27.299,60.351,60.852,60.351
			c33.555,0,60.853-27.073,60.853-60.351C393.964,395.829,393.925,382.972,390.509,379.237z M280.18,396.373
			c0-22.028,12.908-40.691,33.685-48.704c6.587-2.541,13.304-3.78,19.885-3.78c13.962,0,27.316,5.579,37.522,16.146l-18.025,16.048
			c-8.776-8.474-21.438-10.506-32.736-5.109c-10.93,5.216-17.122,15.923-16.145,27.624c-8.3,1.034-16.305,2.217-23.84,3.526
			C280.348,400.372,280.18,398.233,280.18,396.373z M328.087,413.141h16.984c-6.612,4.62-14.308,4.274-19.837,2.089
			c-8.041-3.18-13.035-10.406-13.035-18.856c0-7.847,4.301-14.652,11.506-18.196c3.036-1.494,6.279-2.229,9.494-2.229
			c2.362,0,4.708,0.397,6.947,1.182h-12.06c-0.99,0-1.793,0.803-1.793,1.793v32.424
			C326.294,412.337,327.097,413.141,328.087,413.141z M333.111,448.805c-24.089,0-44.994-16.128-51.126-38.873
			c7.636-1.336,15.742-2.533,24.145-3.563c3.972,10.381,13.631,17.485,25.002,18.254c12.1,0.825,22.981-5.631,28.376-16.832
			c0.268-0.556,0.231-1.21-0.097-1.731c-0.328-0.524-0.902-0.839-1.519-0.839h-23.677v-1.606
			c16.473-1.241,33.795-1.924,51.556-2.034C383.112,428.212,360.347,448.805,333.111,448.805z M334.215,395.617v-10.564
			l50.607-0.001c0.379,1.7,0.917,4.884,1.118,8.431C368.495,393.603,351.114,394.319,334.215,395.617z"/>
	</g>
</g>
<g>
	<g>
		<path fill="#534A4A" d="M243.784,248.829c-1.542-8.278-12.018-13.267-23.043-8.177c-1.957,0.904-1.064,2.239,1.45,10.851
			l5.961,19.166c0.182,0.582,0.629,1.046,1.205,1.248c0.209,0.074,0.424,0.11,0.641,0.11c0.379,0,0.757-0.112,1.079-0.33
			C238.536,266.663,245.878,260.013,243.784,248.829z M232.459,262.347c-3.852-12.57-1.58-4.898-5.166-16.909
			c2.502-0.448,4.818-0.22,6.657,0.667c1.077,0.512,2.942,1.704,3.349,3.95C238.196,254.85,236.747,258.526,232.459,262.347z"/>
	</g>
</g>
<g>
	<g>
		<path fill="#534A4A" d="M394.174,235.891c-5.845,6.419-5.286,16.326,1.082,22.075c0.408,0.383,0.827,0.613,1.418,0.613
			c0.03,0,0.062,0,0.093-0.002c1.195-0.056,0.051,0.843,19.393-21.293C419.419,233.565,403.475,225.591,394.174,235.891z
			 M396.931,251.287c-4.554-8.282,3.684-17.64,12.428-14.321L396.931,251.287z"/>
	</g>
</g>
<g>
	<g>
		<path fill="#534A4A" d="M548.002,262.127c-4.945,6.269-16.419,2.96-16.067-4.938c0.143-3.59,2.636-4.289,1.174-6.097
			c-0.537-0.665-1.448-0.898-2.234-0.574c-14.148,5.789-9.439,25.796,6.087,25.796c7.807,0,14.037-5.535,14.485-12.876
			C551.562,261.552,549.161,260.646,548.002,262.127z"/>
	</g>
</g>
<g>
	<g>
		<path fill="#534A4A" d="M302.715,268.196c-0.797-0.269-1.678,0.006-2.175,0.687c-1.648,2.245-4.417,3.585-7.409,3.585
			c-4.872,0-8.837-3.529-8.837-7.865c0-1.351,0.385-2.679,1.113-3.843c0.453-0.724,0.375-1.661-0.189-2.302
			c-0.568-0.641-1.485-0.833-2.262-0.473c-13.618,6.317-8.652,25.516,6.489,25.516c8.023,0,14.429-5.902,14.583-13.435
			C304.045,269.223,303.513,268.466,302.715,268.196z"/>
	</g>
</g>
<g>
	<g>
		<path fill="#534A4A" d="M636.137,229.25c-36.383-8.843-34.578-8.728-35.647-8.083c-1.087,0.659-0.816,0.962-4.039,14.239
			l-3.091-15.288c-0.154-0.751-0.733-1.34-1.48-1.504c-43.779-9.638-41.679-9.594-42.805-8.673c-0.455,0.372-0.72,0.931-0.712,1.523
			c0.284,22.351-0.212,22.352,1.776,22.796l5.257,1.176l-0.488,4.479c-1.195-0.502-6.482-3.772-15.388-3.772
			c-4.47,0-8.943,0.834-13.306,2.481c-5.748,2.201-7.863,4.27-9.058,4.9l-6.498-41.011c-0.147-0.938-0.955-1.628-1.908-1.628
			h-26.492c-2.012,0-1.963,1.963-2.454,4.902c-31.389,0-31.244-0.607-31.605,1.62l-3.315,20.298l-2.603-3.217
			c-7.517-9.233-18.454-14.46-30.796-14.717l24.733-13.295c1.012-0.546,1.32-1.837,0.689-2.776
			c-17.277-25.785-16.12-24.594-17.447-24.676c-0.576-0.036-1.183,0.207-1.578,0.662c-33.09,38.127-32.26,36.244-30.837,37.98
			l4.753,5.795c-5.163,2.11-9.743,5.024-13.617,8.662l-26.892-23.863c-0.445-0.393-1.047-0.563-1.632-0.454
			c-0.585,0.108-1.088,0.478-1.364,1.006l-8.905,17.07l0.33-15.809c0.013-0.623-0.275-1.216-0.775-1.589
			c-0.501-0.373-1.15-0.481-1.743-0.292c-43.903,14.027-42.391,12.973-42.295,15.017l0.969,20.289
			c0.027,0.581,0.317,1.119,0.783,1.464c0.471,0.345,1.066,0.46,1.632,0.314l5.342-1.385l1.13,12.236
			c-11.052-4.965-25.35-3.592-37.032,4.891c9.013-39.938-45.929-66.891-106.841-28.07l-5.606,3.554
			c-0.881,0.559-1.161,1.716-0.628,2.617l16.848,28.47c0.965,1.633,2.338,3.952,3.225,5.443c0.512,0.861,1.595,1.185,2.497,0.754
			l6.738-3.238l35.961,80.24c0.319,0.711,1.02,1.143,1.763,1.143c0.195,0,0.393-0.03,0.588-0.092l30.128-9.644
			c0.977-0.313,1.538-1.334,1.279-2.326l-11.248-43.212c2.75-2.036,5.35-4.219,7.729-6.492
			c-4.054,33.361,35.01,48.681,60.011,24.259c1.102,11.872,0.607,14.821,3.382,14.404l28.032-4.129
			c0.95-0.139,1.652-0.955,1.651-1.914l-0.048-26.758c68.46,33.835,64.031,32.082,65.335,31.272
			c0.568-0.353,0.912-0.973,0.912-1.641v-28.593c8.533-0.717,19.15-4.001,27.18-8.815l0.002-0.001
			c-2.338,14.328-3.558,16.902-0.859,17.328c33.826,5.325,32.31,5.408,33.322,4.669c1.009-0.741,0.749-1.149,2.432-12.202
			c8.213,15.171,7.762,15.045,9.31,15.041c0.715-0.007,1.369-0.408,1.697-1.042l4.025-7.753c2.033,17.595,1.611,17.958,3.502,18.292
			l36.413,6.421c0.112,0.02,0.225,0.029,0.336,0.029c0,0,0.017,0,0.024,0c1.07,0,1.933-0.864,1.933-1.932
			c0-0.213-0.035-0.417-0.098-0.607l-1.676-10.648h0.002c6.902,0.779,14.262-0.575,20.947-3.985l-1.406,12.632
			c-0.115,1.038,0.617,1.979,1.651,2.125l25.093,3.541c0.183,9.983-0.191,10.928,1.531,11.47l24.963,7.835
			c1.011,0.317,2.08-0.234,2.412-1.235l35.332-106.493C637.868,230.676,637.24,229.517,636.137,229.25z M443.699,234.906
			l-2.244,13.897l-5.853-5.271L443.699,234.906z M418.108,180.073l9.809,13.328l-28.05,13.907l-1.935-2.945L418.108,180.073z
			 M233.536,282.107c-0.702,0.452-1.035,1.304-0.825,2.112l10.837,41.575l-18.115,5.788l-36.34-81.159
			c-0.215-0.48-0.618-0.852-1.113-1.029c-0.212-0.075-0.43-0.114-0.651-0.114c-0.296,0-0.59,0.068-0.861,0.203
			c-1.232,0.614-2.701,1.328-4.233,2.073l-3.157,1.541l-13.46-22.738c31.333-20.011,79.687-26.817,92.484,2.795
			C264.501,247.942,253.938,268.988,233.536,282.107z M294.051,305.639c-16.173,6.849-31.577-0.49-35.639-14.919
			c-4.058-14.394,5.192-31.511,20.611-38.152c4.064-1.716,8.197-2.587,12.284-2.587c5.246,0,10.155,1.452,14.2,4.199
			C323.313,266.259,316.496,295.98,294.051,305.639z M336.331,274.183c-1.28,0.795-0.922-0.891-0.807,32.957l-17.003,2.318
			l-1.185-14.198c8.307-14.245,7.776-31.812-3.629-43.044c-2.334-27.722-1.86-27.236-3.055-28.081
			c-0.465-0.329-1.049-0.439-1.602-0.294l-5.416,1.406l-0.337-7.319l27.305-8.129c1.462,24.568,0.993,23.934,2.746,24.437
			c0.784,0.225,1.63-0.069,2.106-0.736l16.94-23.8l19.665,18.726c-27.522,28.996-26.334,27.217-26.018,28.646
			c0.137,0.625,0.579,1.143,1.175,1.379l23.177,9.167c5.394,10.222,16.314,17.998,30.746,19.425l0.004,18.53
			C333.419,271.698,337.645,273.37,336.331,274.183z M367.011,257.94l-9.143-3.527l8.523-8.284
			C366.019,250.008,366.227,253.981,367.011,257.94z M438.553,266.544c-19.216,15.894-52.063,17.662-61.646-4.775
			c-0.592-1.339-1.049-2.707-1.399-4.176c-8.252-35.174,40.191-52.336,60.259-27.699c-25.807,27.469-25.318,26.218-24.405,27.908
			c0.802,1.48,2.336,0.972,4.025,0.567c5.898-1.438,9.511-4.289,13.378-8.817l14.249,12.834
			C441.6,263.848,440.096,265.251,438.553,266.544z M496.613,305.433l-4.87-32.248c-0.294-1.948-3.001-2.248-3.711-0.408
			l-5.79,14.97c-10.845-23.39-10.16-23.028-12.067-22.77c-1.938,0.269-1.397,0.081-5.668,27.069l-21.017-3.658l2.956-17.576v-0.001
			c0.794-0.745,1.575-1.492,2.344-2.283l5.409-5.568c0.367-0.378,0.563-0.887,0.544-1.414c-0.017-0.525-0.25-1.021-0.639-1.371
			l-5.122-4.586l7.032-41.851h21.201l3.373,18.426c0.171,0.918,0.969,1.583,1.901,1.583h0.005c0.936-0.002,1.734-0.674,1.898-1.595
			l4.078-23.018h15.165l6.297,40.907c-16.093,18.327-11.926,42.908,5.893,52.42c0.628,0.317,1.464,0.726,2.351,1.082l0.803,5.301
			L496.613,305.433z M516.748,294.341c-12.931-9.357-12.479-29.239,1.744-42.178c16.568-14.858,39.828-9.398,44.011,8.574
			C568.412,285.142,537.11,308.823,516.748,294.341z M596.3,329.759l-15.538-4.627l-0.899-37.92
			c-0.055-2.326-3.433-2.554-3.833-0.29l-4.438,25.114l-16.956-2.705c0-0.002,1.212-12.724,1.212-12.726
			c17.498-14.779,19.394-39.311,4.977-52.479c1.308-13.704,1.954-14.87-0.152-15.43l-4.828-1.283l0.429-8.015l29.209,5.873
			c8.627,40.913,7.792,39.711,9.917,39.743c0.848,0.023,1.695-0.602,1.905-1.479l8.068-33.446l22.215,4.908L596.3,329.759z"/>
	</g>
</g>
</svg>
