<?xml version="1.0" encoding="utf-8"?>
<!-- Generator: Adobe Illustrator 17.0.0, SVG Export Plug-In . SVG Version: 6.00 Build 0)  -->
<!DOCTYPE svg PUBLIC "-//W3C//DTD SVG 1.1//EN" "http://www.w3.org/Graphics/SVG/1.1/DTD/svg11.dtd">
<svg version="1.1" id="Layer_1" xmlns="http://www.w3.org/2000/svg" xmlns:xlink="http://www.w3.org/1999/xlink" x="0px" y="0px"
	 width="792px" height="612px" viewBox="0 0 792 612" enable-background="new 0 0 792 612" xml:space="preserve">
<g>
	<g>
		<path fill="#008E76" d="M612.375,89.625C554.578,31.829,477.737,0,396,0S237.421,31.829,179.625,89.625S90,224.263,90,306
			s31.829,158.579,89.625,216.375S314.263,612,396,612s158.578-31.829,216.375-89.625S702,387.737,702,306
			S670.171,147.421,612.375,89.625z M396,585.391c-149.596,0-272.097-118.185-279.067-266.087h186.903
			c6.477,45.069,45.332,79.827,92.165,79.827s85.688-34.756,92.165-79.827h40.879c7.346,0,13.304-5.957,13.304-13.304
			s-5.957-13.304-13.304-13.304H488.18c-1.988-13.89-7.075-27.13-15.018-38.86c-4.121-6.083-12.393-7.675-18.477-3.556
			c-6.084,4.121-7.676,12.393-3.555,18.477c7.454,11.005,11.394,23.884,11.394,37.242c0,36.681-29.842,66.522-66.522,66.522
			c-36.681,0-66.522-29.842-66.522-66.522c0-33.199,24.767-61.544,57.612-65.932c7.284-0.973,12.398-7.667,11.426-14.949
			c-0.974-7.284-7.666-12.391-14.949-11.426c-41.543,5.551-73.852,38.451-79.731,79.003H116.933
			C123.903,144.794,246.404,26.609,396,26.609s272.097,118.185,279.067,266.087h-92.805c-7.346,0-13.304,5.957-13.304,13.304
			c0,7.346,5.957,13.304,13.304,13.304h92.805C668.097,467.206,545.596,585.391,396,585.391z"/>
	</g>
</g>
<g>
	<g>
		<path fill="#008E76" d="M435.173,221.495c-0.12-0.06-0.247-0.121-0.374-0.179c-6.505-3.027-14.277-0.344-17.505,6.116
			c-3.286,6.571-0.623,14.562,5.951,17.85c0.12,0.06,0.247,0.121,0.374,0.179c1.809,0.843,3.716,1.243,5.595,1.243
			c4.88,0,9.579-2.694,11.91-7.357C444.41,232.773,441.747,224.781,435.173,221.495z"/>
	</g>
</g>
</svg>
