<?xml version="1.0" encoding="iso-8859-1"?>
<!-- Generator: Adobe Illustrator 19.0.0, SVG Export Plug-In . SVG Version: 6.00 Build 0)  -->
<svg version="1.1" id="Layer_1" xmlns="http://www.w3.org/2000/svg" xmlns:xlink="http://www.w3.org/1999/xlink" x="0px" y="0px"
	 viewBox="0 0 512 512" style="enable-background:new 0 0 512 512;" xml:space="preserve">
<path style="fill:#8859A0;" d="M330.691,292.81c0,4.561-3.696,8.258-8.258,8.258H131.569v150.373h248.861V301.068h-24.964
	c-4.562,0-8.258-3.697-8.258-8.258v-0.001h-16.516V292.81z M319.989,401.193c-0.486,4.162-4.012,7.3-8.202,7.3h-19.95l-4.124,19.564
	c-0.805,3.821-4.176,6.555-8.081,6.555h-47.267c-3.904,0-7.275-2.734-8.081-6.555l-4.124-19.564h-19.95
	c-4.191,0-7.716-3.138-8.202-7.3c-2.901-24.835,3.307-47.922,17.03-63.343c11.617-13.053,27.856-19.953,46.96-19.953
	s35.343,6.899,46.96,19.953C316.682,353.271,322.89,376.359,319.989,401.193z"/>
<g>
	<rect x="131.566" y="467.957" style="fill:#DED8CC;" width="248.865" height="27.527"/>
	<path style="fill:#DED8CC;" d="M322.433,284.552c4.561,0,8.257,3.696,8.258,8.257h16.516c0.001-4.561,3.697-8.257,8.258-8.257
		h24.676c-3.051-45.929-31.36-86.794-73.881-105.595c-2.989-1.322-4.919-4.283-4.919-7.552v-46.546h-54.298
		c-4.562,0-8.258-3.697-8.258-8.258c0-4.561,3.696-8.258,8.258-8.258h59.583V88.6h-7.961c-0.003,0-0.008,0-0.011,0
		c-0.005,0-0.012,0-0.018,0h-93.263v19.742h8.639c4.562,0,8.258,3.697,8.258,8.258c0,4.561-3.696,8.258-8.258,8.258h-3.355v46.546
		c0,3.269-1.929,6.231-4.919,7.552c-42.522,18.801-70.831,59.666-73.881,105.595H322.433z"/>
</g>
<polygon style="fill:#FECC7B;" points="294.252,16.516 217.745,16.516 221.123,72.084 290.874,72.084 "/>
<path style="fill:#FFFFFF;" d="M207.864,391.977h18.996c3.904,0,7.275,2.734,8.081,6.555l4.124,19.564h33.869l4.124-19.564
	c0.805-3.821,4.176-6.555,8.081-6.555h18.996c0.564-17.253-4.214-32.699-13.511-43.147c-8.513-9.566-20.163-14.416-34.622-14.416
	c-14.459,0-26.109,4.85-34.622,14.416C212.078,359.279,207.301,374.725,207.864,391.977z M270.208,363.757h3.551
	c4.562,0,8.258,3.697,8.258,8.258c0,4.561-3.696,8.258-8.258,8.258h-3.551c-4.562,0-8.258-3.697-8.258-8.258
	C261.95,367.454,265.648,363.757,270.208,363.757z M238.239,363.757h3.551c4.562,0,8.258,3.697,8.258,8.258
	c0,4.561-3.696,8.258-8.258,8.258h-3.551c-4.562,0-8.258-3.697-8.258-8.258C229.98,367.454,233.678,363.757,238.239,363.757z"/>
<path d="M255.999,317.898c-19.105,0-35.343,6.899-46.96,19.953c-13.724,15.421-19.932,38.508-17.03,63.343
	c0.486,4.162,4.012,7.3,8.202,7.3h19.95l4.124,19.564c0.805,3.821,4.176,6.555,8.081,6.555h47.267c3.904,0,7.275-2.734,8.081-6.555
	l4.124-19.564h19.95c4.191,0,7.716-3.138,8.202-7.3c2.901-24.835-3.307-47.922-17.03-63.343
	C291.342,324.797,275.104,317.898,255.999,317.898z M255.999,334.414c14.46,0,26.109,4.85,34.622,14.416
	c9.297,10.448,14.075,25.894,13.511,43.147h-18.996c-3.904,0-7.275,2.734-8.081,6.555l-4.124,19.564h-33.869l-4.124-19.564
	c-0.805-3.821-4.176-6.555-8.081-6.555h-18.996c-0.564-17.253,4.214-32.699,13.511-43.147
	C229.89,339.264,241.538,334.414,255.999,334.414z"/>
<path d="M238.239,380.273h3.551c4.562,0,8.258-3.697,8.258-8.258c0-4.561-3.696-8.258-8.258-8.258h-3.551
	c-4.562,0-8.258,3.697-8.258,8.258C229.98,376.575,233.678,380.273,238.239,380.273z"/>
<path d="M270.208,380.273h3.551c4.562,0,8.258-3.697,8.258-8.258c0-4.561-3.696-8.258-8.258-8.258h-3.551
	c-4.562,0-8.258,3.697-8.258,8.258C261.95,376.575,265.648,380.273,270.208,380.273z"/>
<path d="M317.858,166.14v-44.008c3.209-2.443,5.284-6.303,5.284-10.637V85.448c0-7.368-5.994-13.363-13.364-13.363h-2.356
	l3.849-63.325c0.138-2.273-0.668-4.502-2.229-6.161c-1.561-1.659-3.738-2.6-6.015-2.6H208.97c-2.277,0-4.454,0.94-6.014,2.599
	c-1.56,1.658-2.366,3.888-2.229,6.161l3.849,63.325h-2.356c-7.368,0-13.364,5.994-13.364,13.363v26.048
	c0,4.335,2.076,8.194,5.284,10.637v44.008c-48.219,23.572-79.087,72.708-79.087,126.67v210.932c0,4.561,3.696,8.258,8.258,8.258
	h265.377c4.562,0,8.258-3.697,8.258-8.258V292.81C396.945,238.849,366.078,189.712,317.858,166.14z M217.745,16.516h76.507
	l-3.378,55.568h-69.752L217.745,16.516z M205.738,178.957c2.989-1.322,4.918-4.283,4.918-7.552v-46.546h3.355
	c4.562,0,8.258-3.697,8.258-8.258c0-4.561-3.696-8.258-8.258-8.258h-8.639V88.6h93.263c0.006,0,0.012,0,0.018,0
	c0.003,0,0.008,0,0.011,0h7.961v19.742h-59.582c-4.562,0-8.258,3.697-8.258,8.258c0,4.561,3.696,8.258,8.258,8.258h54.298v46.546
	c0,3.269,1.929,6.231,4.919,7.552c42.522,18.801,70.831,59.666,73.881,105.595h-24.676c-4.561,0-8.257,3.696-8.258,8.257v0.001
	c0,4.561,3.696,8.258,8.258,8.258h24.964v150.373h-248.86V301.068h190.865c4.562,0,8.258-3.697,8.258-8.258v-0.001
	c-0.001-4.561-3.697-8.257-8.258-8.257H131.856C134.907,238.623,163.216,197.758,205.738,178.957z M131.569,467.957h248.861v27.527
	H131.569V467.957z"/>
<g>
</g>
<g>
</g>
<g>
</g>
<g>
</g>
<g>
</g>
<g>
</g>
<g>
</g>
<g>
</g>
<g>
</g>
<g>
</g>
<g>
</g>
<g>
</g>
<g>
</g>
<g>
</g>
<g>
</g>
</svg>
